<svg width="26" height="26" viewBox="0 0 26 26" fill="none" xmlns="http://www.w3.org/2000/svg">
<path d="M20.0815 12.3356L20.0803 12.3377C19.8158 12.8202 19.3001 13.1429 18.7071 13.1429H9.12857H8.5373L8.25236 13.6609L6.83807 16.2324L6.25605 17.2906C6.0929 16.8795 6.09838 16.3953 6.34103 15.9481L8.075 12.8141L8.32343 12.3651L8.10352 11.9015L3.47495 2.14288L3.2039 1.57143H2.57143H1V1H3.56934L4.50783 2.99679L4.77791 3.57143H5.41286H24.4414C24.6566 3.57143 24.7886 3.80525 24.6877 3.98528L24.6877 3.98527L24.6844 3.99128L20.0815 12.3356ZM7.71429 18.2857C7.21293 18.2857 6.78666 18.0578 6.50539 17.7143H7.71429H22.1429V18.2857H7.71429ZM6.15571 23.1429C6.15571 22.2743 6.8588 21.5714 7.71429 21.5714C8.57629 21.5714 9.28571 22.2809 9.28571 23.1429C9.28571 24.0049 8.57629 24.7143 7.71429 24.7143C6.8588 24.7143 6.15571 24.0114 6.15571 23.1429ZM19.0129 23.1429C19.0129 22.2743 19.7159 21.5714 20.5714 21.5714C21.4334 21.5714 22.1429 22.2809 22.1429 23.1429C22.1429 24.0049 21.4334 24.7143 20.5714 24.7143C19.7159 24.7143 19.0129 24.0114 19.0129 23.1429Z" stroke="white" stroke-width="2"/>
</svg>
