<svg width="40" height="40" viewBox="0 0 40 40" fill="none" xmlns="http://www.w3.org/2000/svg">
<path d="M13.3333 4.44434H26.6667C29.0242 4.44434 31.2851 5.38084 32.9521 7.04783C34.6191 8.71482 35.5556 10.9757 35.5556 13.3332V26.6666C35.5556 29.024 34.6191 31.285 32.9521 32.952C31.2851 34.6189 29.0242 35.5554 26.6667 35.5554H13.3333C10.9759 35.5554 8.71494 34.6189 7.04795 32.952C5.38096 31.285 4.44446 29.024 4.44446 26.6666V13.3332C4.44446 10.9757 5.38096 8.71482 7.04795 7.04783C8.71494 5.38084 10.9759 4.44434 13.3333 4.44434ZM20 26.6666C21.7681 26.6666 23.4638 25.9642 24.7141 24.7139C25.9643 23.4637 26.6667 21.768 26.6667 19.9999C26.6667 18.2318 25.9643 16.5361 24.7141 15.2858C23.4638 14.0356 21.7681 13.3332 20 13.3332C18.2319 13.3332 16.5362 14.0356 15.286 15.2858C14.0357 16.5361 13.3333 18.2318 13.3333 19.9999C13.3333 21.768 14.0357 23.4637 15.286 24.7139C16.5362 25.9642 18.2319 26.6666 20 26.6666ZM27.6533 14.3199C27.9182 14.3288 28.1821 14.2843 28.4295 14.1891C28.6768 14.0938 28.9024 13.9498 29.0929 13.7656C29.2834 13.5814 29.4349 13.3607 29.5384 13.1167C29.6418 12.8728 29.6952 12.6105 29.6952 12.3454C29.6952 12.0804 29.6418 11.8181 29.5384 11.5742C29.4349 11.3302 29.2834 11.1095 29.0929 10.9253C28.9024 10.7411 28.6768 10.5971 28.4295 10.5018C28.1821 10.4066 27.9182 10.3621 27.6533 10.371C27.1412 10.3882 26.6557 10.6037 26.2994 10.9721C25.9432 11.3405 25.744 11.833 25.744 12.3454C25.744 12.8579 25.9432 13.3504 26.2994 13.7188C26.6557 14.0872 27.1412 14.3027 27.6533 14.3199Z" fill="white"/>
</svg>
