<svg width="26" height="23" viewBox="0 0 26 23" fill="none" xmlns="http://www.w3.org/2000/svg">
<path d="M12.25 3.28161L12.9995 4.13022L13.749 3.28161C14.978 1.89016 16.8769 1 18.8495 1C22.3359 1 24.9995 3.61962 24.9995 6.89373C24.9995 8.92207 24.0626 10.847 22.1901 13.0544C20.3073 15.2738 17.5945 17.6479 14.2263 20.5927L14.2249 20.5939L12.997 21.6716L11.7735 20.6059C11.7731 20.6055 11.7727 20.6052 11.7723 20.6048C8.40445 17.654 5.69197 15.2771 3.80917 13.0562C1.93638 10.8471 0.999512 8.92209 0.999512 6.89373C0.999512 3.61962 3.66308 1 7.14951 1C9.12211 1 11.021 1.89016 12.25 3.28161Z" stroke="white" stroke-width="2"/>
</svg>
