<svg width="27" height="26" viewBox="0 0 27 26" fill="none" xmlns="http://www.w3.org/2000/svg">
<path d="M17.6858 5C15.5978 5 13.5938 5.92698 12.2858 7.39183C10.9778 5.92698 8.97377 5 6.88577 5C3.18977 5 0.285767 7.76948 0.285767 11.2943C0.285767 15.6202 4.36577 19.145 10.5458 24.5008L12.2858 26L14.0258 24.4894C20.2058 19.145 24.2858 15.6202 24.2858 11.2943C24.2858 7.76948 21.3818 5 17.6858 5ZM12.4058 22.7956L12.2858 22.9101L12.1658 22.7956C6.45377 17.8632 2.68577 14.6016 2.68577 11.2943C2.68577 9.00545 4.48577 7.28883 6.88577 7.28883C8.73377 7.28883 10.5338 8.4218 11.1698 9.98965H13.4138C14.0378 8.4218 15.8378 7.28883 17.6858 7.28883C20.0858 7.28883 21.8858 9.00545 21.8858 11.2943C21.8858 14.6016 18.1178 17.8632 12.4058 22.7956Z" fill="#262626"/>
<circle cx="21.5001" cy="5.21429" r="4.21429" fill="#D2001A" stroke="white" stroke-width="2"/>
</svg>
