<svg width="52" height="52" viewBox="0 0 52 52" fill="none" xmlns="http://www.w3.org/2000/svg">
<path d="M33.5397 1H51V46L46 51H1V6L6 1H33.5397Z" fill="#262626"/>
<path d="M51 1H52V0H51V1ZM1 51H0V52H1V51ZM46 51V52H46.4142L46.7071 51.7071L46 51ZM51 46L51.7071 46.7071L52 46.4142V46H51ZM6 1V0H5.58579L5.29289 0.292893L6 1ZM1 6L0.292893 5.29289L0 5.58579V6H1ZM51 0H33.5397V2H51V0ZM1 52H46V50H1V52ZM52 46V1H50V46H52ZM46.7071 51.7071L51.7071 46.7071L50.2929 45.2929L45.2929 50.2929L46.7071 51.7071ZM33.5397 0H6V2H33.5397V0ZM0 6V51H2V6H0ZM5.29289 0.292893L0.292893 5.29289L1.70711 6.70711L6.70711 1.70711L5.29289 0.292893Z" fill="#777777"/>
<path d="M12 21.7544L25.7544 8M25.7544 8L39.5087 21.7544M25.7544 8L25.7543 45.5" stroke="#777777" stroke-width="2" stroke-linejoin="bevel"/>
</svg>
