<svg width="85" height="50" viewBox="0 0 85 50" fill="none" xmlns="http://www.w3.org/2000/svg">
<g clip-path="url(#clip0)">
<path d="M0.996727 18.334C5.18834 18.1649 11.3111 18.0403 18.7154 18.334C33.1324 18.9035 45.8051 21.3955 45.8051 21.3955C45.8051 21.3955 39.7803 21.1285 31.0945 22.3389C22.382 23.5493 15.4582 26.2282 10.8306 28.4087C9.25536 27.3229 7.44878 25.8989 5.60661 24.0388C3.60425 22.0096 2.10025 20.0249 0.996727 18.334Z" fill="#0C4894"/>
<path d="M12.9575 30.0463C12.9219 30.0196 12.9308 29.9662 12.9753 29.9484C16.9533 28.0616 21.937 26.1036 27.8195 24.6529C35.8111 22.6682 48.3148 22.3389 48.3148 22.3389C48.3148 22.3389 48.3949 22.4368 48.3326 22.4546C45.3869 23.3891 41.2843 25.0623 37.0393 28.1684C31.6284 32.12 28.3891 36.6234 26.6359 39.5248C26.6181 39.5515 26.5825 39.5604 26.5558 39.5426C24.4644 38.4301 22.1862 37.0773 19.81 35.4397C17.158 33.6152 14.8798 31.7729 12.9575 30.0463Z" fill="#777777"/>
<path d="M29.6261 41.2692C31.6017 37.7003 35.3929 31.9865 42.0051 27.0737C51.6165 19.927 61.5482 18.6365 65.9623 18.3517C66.0068 18.3517 66.0246 18.4051 65.9801 18.4318C63.2569 19.8914 56.52 23.9943 52.1949 32.4226C48.3059 39.9965 48.4394 47.0185 48.6797 50.0178C45.6272 49.1011 42.1742 47.8462 38.4899 46.1374C35.0992 44.5443 32.1446 42.8711 29.6261 41.2692Z" fill="#D20018"/>
<path d="M63.0077 21.4133C64.6451 20.3809 66.9323 19.2061 69.8246 18.4941C75.7694 17.0167 80.7708 18.325 83.1826 19.1438C82.6397 20.0071 81.9634 20.9683 81.1001 21.9562C80.2992 22.8907 79.5071 23.6561 78.7863 24.288C76.8106 23.5671 74.5146 22.8818 71.9159 22.3567C68.5609 21.6714 65.544 21.44 63.0077 21.4133Z" fill="#0C4894"/>
<path d="M61.9931 22.0363C64.307 22.0452 66.9145 22.2054 70.1539 22.9441C72.6279 23.5137 74.7638 24.2613 76.5258 25.0089C75.9296 25.4628 75.2265 25.9434 74.3989 26.4062C73.3221 27.0114 72.2986 27.4386 71.4265 27.7412C69.9314 26.9402 68.0803 26.0947 65.9089 25.3738C63.6929 24.644 61.6639 24.2969 59.9641 24.0566C60.5514 23.3802 61.3257 22.5614 61.9931 22.0363Z" fill="#777777"/>
<path d="M58.8695 24.8754C60.2222 25.0979 61.8596 25.4806 63.6484 26.1481C65.5974 26.8779 67.1904 27.7323 68.4274 28.5155C67.1815 28.738 65.7487 28.916 64.1468 28.9694C62.8475 29.0139 61.6639 28.9694 60.5959 28.8804C60.1065 28.5778 59.5814 28.2752 59.0029 27.9726C58.3711 27.6433 57.757 27.3585 57.1786 27.1093C57.7481 26.3617 58.3088 25.6141 58.8695 24.8754Z" fill="#D20018"/>
<path d="M0.907738 8.31259H1.87777L3.08809 11.9616L4.3162 8.31259H5.28624L6.16728 13.5458H5.19724L4.63658 10.2439L3.52416 13.5458H2.65202L1.54849 10.2439L0.970033 13.5458H0L0.907738 8.31259Z" fill="#262626"/>
<path d="M10.7327 11.8993H7.60897C7.65347 12.1752 7.77806 12.3888 7.97385 12.5579C8.16964 12.727 8.41882 12.7982 8.7214 12.7982C9.08627 12.7982 9.39775 12.6736 9.65583 12.4155L10.4746 12.7982C10.2699 13.0919 10.0296 13.3055 9.74483 13.439C9.46005 13.5814 9.12187 13.6437 8.7303 13.6437C8.12514 13.6437 7.62677 13.4568 7.2441 13.0652C6.86143 12.6825 6.67454 12.2019 6.67454 11.6234C6.67454 11.036 6.86143 10.5465 7.2441 10.1549C7.62677 9.76329 8.09844 9.56749 8.6769 9.56749C9.29096 9.56749 9.78042 9.76329 10.1631 10.1549C10.5458 10.5465 10.7327 11.0627 10.7327 11.7035V11.8993ZM9.75373 11.1339C9.69143 10.9203 9.56684 10.7423 9.37105 10.6088C9.18417 10.4753 8.96168 10.4041 8.7125 10.4041C8.44552 10.4041 8.20523 10.4842 8.00055 10.6355C7.87595 10.7334 7.75136 10.8936 7.64457 11.1339H9.75373Z" fill="#262626"/>
<path d="M11.1687 9.68318H14.773V10.6088H13.4826V13.5547H12.5125V10.6088H11.1598V9.68318H11.1687Z" fill="#262626"/>
<path d="M18.2704 9.68318H19.2405V13.5547H18.2704V13.1453C18.0836 13.3233 17.8878 13.4568 17.7009 13.5369C17.514 13.617 17.3004 13.6526 17.0779 13.6526C16.5796 13.6526 16.1435 13.4568 15.7786 13.0741C15.4137 12.6914 15.2269 12.2019 15.2269 11.6234C15.2269 11.0271 15.4048 10.5376 15.7608 10.1549C16.1168 9.77218 16.544 9.58528 17.0512 9.58528C17.2826 9.58528 17.5051 9.62978 17.7098 9.71878C17.9145 9.80778 18.1014 9.94128 18.2704 10.1104V9.68318ZM17.2559 10.4753C16.9533 10.4753 16.7042 10.5821 16.5084 10.7957C16.3126 11.0093 16.2147 11.2763 16.2147 11.6145C16.2147 11.9527 16.3126 12.2286 16.5173 12.4422C16.7219 12.6558 16.9711 12.7626 17.2648 12.7626C17.5674 12.7626 17.8255 12.6558 18.0213 12.4422C18.2259 12.2286 18.3238 11.9527 18.3238 11.6056C18.3238 11.2674 18.2259 11.0004 18.0213 10.7868C17.8166 10.5821 17.5585 10.4753 17.2559 10.4753Z" fill="#262626"/>
<path d="M23.6902 13.5547H22.6934L21.7234 11.1161L20.7356 13.5547H19.7566L21.4119 9.68318H22.0349L23.6902 13.5547Z" fill="#262626"/>
<path d="M27.6593 13.5547H26.6715L25.7014 11.1161L24.7136 13.5547H23.7258L25.3811 9.68318H26.004L27.6593 13.5547Z" fill="#262626"/>
<path d="M30.2312 12.727C30.6139 12.727 30.9699 12.6202 31.2903 12.4155C31.6106 12.2108 31.842 11.8815 31.9755 11.4276H29.9731V10.5198H31.9755C31.931 10.1638 31.7352 9.84339 31.4059 9.56749C31.0767 9.29159 30.6851 9.14919 30.249 9.14919C29.6439 9.14919 29.1099 9.39839 28.6471 9.89679L27.953 9.23819C28.2378 8.89999 28.5848 8.64189 28.9853 8.45499C29.3947 8.26809 29.8041 8.17909 30.2312 8.17909C30.9788 8.17909 31.6284 8.42829 32.1891 8.93559C32.7497 9.44289 33.0256 10.1015 33.0256 10.9203C33.0256 11.7035 32.7675 12.3621 32.2603 12.8872C31.753 13.4123 31.0767 13.6793 30.249 13.6793C29.8486 13.6793 29.4748 13.617 29.1188 13.4835C28.7628 13.35 28.3802 13.083 27.9708 12.6825L28.6471 11.9794C29.1277 12.4778 29.6528 12.727 30.2312 12.727Z" fill="#262626"/>
<path d="M34.8233 11.0716H36.2739V9.67429H37.2439V13.5458H36.2739V11.9438H34.8233V13.5458H33.8533V9.67429H34.8233V11.0716Z" fill="#262626"/>
<path d="M42.103 11.8993H38.9793C39.0238 12.1752 39.1484 12.3888 39.3442 12.5579C39.54 12.727 39.7892 12.7982 40.0917 12.7982C40.4566 12.7982 40.7681 12.6736 41.0262 12.4155L41.8449 12.7982C41.6402 13.0919 41.4 13.3055 41.1152 13.439C40.8304 13.5814 40.4922 13.6437 40.1006 13.6437C39.4955 13.6437 38.9971 13.4568 38.6144 13.0652C38.2318 12.6825 38.0449 12.2019 38.0449 11.6234C38.0449 11.036 38.2318 10.5465 38.6144 10.1549C38.9971 9.76329 39.4688 9.56749 40.0472 9.56749C40.6613 9.56749 41.1508 9.76329 41.5334 10.1549C41.9161 10.5465 42.103 11.0627 42.103 11.7035V11.8993ZM41.133 11.1339C41.0707 10.9203 40.9461 10.7423 40.7503 10.6088C40.5634 10.4753 40.3409 10.4041 40.0917 10.4041C39.8248 10.4041 39.5845 10.4842 39.3798 10.6355C39.2552 10.7334 39.1306 10.8936 39.0238 11.1339H41.133Z" fill="#262626"/>
<path d="M43.8562 9.68318V10.1104C44.0342 9.93238 44.2211 9.80778 44.4257 9.71878C44.6304 9.62978 44.844 9.58528 45.0843 9.58528C45.5916 9.58528 46.0187 9.77218 46.3747 10.1549C46.7307 10.5376 46.9087 11.0271 46.9087 11.6234C46.9087 12.2019 46.7218 12.6825 46.3569 13.0741C45.992 13.4657 45.556 13.6526 45.0576 13.6526C44.8351 13.6526 44.6304 13.617 44.4346 13.5369C44.2389 13.4568 44.052 13.3233 43.8651 13.1453V14.9698H42.9039V9.68318H43.8562ZM44.8796 10.4753C44.577 10.4753 44.319 10.5821 44.1143 10.7868C43.9096 11.0004 43.8117 11.2674 43.8117 11.6056C43.8117 11.9527 43.9096 12.2286 44.1143 12.4422C44.319 12.6558 44.5681 12.7626 44.8796 12.7626C45.1733 12.7626 45.4225 12.6558 45.6272 12.4422C45.8318 12.2286 45.9297 11.9527 45.9297 11.6145C45.9297 11.2852 45.8318 11.0093 45.6272 10.7957C45.4314 10.5821 45.1822 10.4753 44.8796 10.4753Z" fill="#262626"/>
<path d="M47.7007 9.68318H49.9612V10.6088H48.6707V13.5547H47.7007V9.68318Z" fill="#262626"/>
<path d="M52.4352 9.57639C52.8001 9.57639 53.1471 9.66538 53.4675 9.85228C53.7879 10.0392 54.0371 10.2795 54.224 10.591C54.402 10.9025 54.4909 11.2407 54.4909 11.6056C54.4909 11.9705 54.402 12.3087 54.2151 12.6291C54.0371 12.9495 53.7879 13.1987 53.4764 13.3767C53.1649 13.5547 52.8179 13.6437 52.4441 13.6437C51.8923 13.6437 51.4118 13.4479 51.0202 13.0474C50.6286 12.6558 50.4328 12.1752 50.4328 11.6056C50.4328 11.0004 50.6553 10.4931 51.1003 10.0926C51.483 9.75438 51.9279 9.57639 52.4352 9.57639ZM52.453 10.4931C52.1504 10.4931 51.9012 10.5999 51.6965 10.8046C51.4919 11.0093 51.394 11.2852 51.394 11.6145C51.394 11.9527 51.4919 12.2286 51.6876 12.4333C51.8834 12.638 52.1415 12.7448 52.4441 12.7448C52.7467 12.7448 53.0048 12.638 53.2005 12.4244C53.4052 12.2108 53.5031 11.9438 53.5031 11.6056C53.5031 11.2763 53.4052 11.0004 53.2094 10.7957C53.0137 10.5999 52.7556 10.4931 52.453 10.4931Z" fill="#262626"/>
<path d="M55.0516 8.31259H56.1729L57.2765 9.99468L58.38 8.31259H59.5013L57.8371 10.8491L59.5992 13.5458H58.4779L57.2765 11.7035L56.0661 13.5547H54.9359L56.7069 10.858L55.0516 8.31259Z" fill="#262626"/>
<path d="M62.0554 9.57639C62.4203 9.57639 62.7674 9.66538 63.0878 9.85228C63.4081 10.0392 63.6573 10.2795 63.8442 10.591C64.0222 10.9025 64.1112 11.2407 64.1112 11.6056C64.1112 11.9705 64.0222 12.3087 63.8353 12.6291C63.6573 12.9495 63.4081 13.1987 63.0967 13.3767C62.7852 13.5547 62.4381 13.6437 62.0643 13.6437C61.5126 13.6437 61.032 13.4479 60.6404 13.0474C60.2489 12.6558 60.0531 12.1752 60.0531 11.6056C60.0531 11.0004 60.2756 10.4931 60.7205 10.0926C61.1032 9.75438 61.5482 9.57639 62.0554 9.57639ZM62.0732 10.4931C61.7707 10.4931 61.5215 10.5999 61.3168 10.8046C61.1121 11.0093 61.0142 11.2852 61.0142 11.6145C61.0142 11.9527 61.1121 12.2286 61.3079 12.4333C61.5037 12.638 61.7618 12.7448 62.0643 12.7448C62.3669 12.7448 62.625 12.638 62.8208 12.4244C63.0255 12.2108 63.1234 11.9438 63.1234 11.6056C63.1234 11.2763 63.0255 11.0004 62.8297 10.7957C62.6339 10.5999 62.3847 10.4931 62.0732 10.4931Z" fill="#262626"/>
<path d="M68.3651 13.5547H67.3773L66.4072 11.1161L65.4194 13.5547H64.4316L66.0869 9.68318H66.7098L68.3651 13.5547Z" fill="#262626"/>
<path d="M69.3796 13.5547V14.2311H68.5164V12.727H69.1038L70.4387 9.67429H71.0616L72.4143 12.727H73.0106V14.2222H72.0851V13.5458H69.3796V13.5547ZM71.382 12.727L70.7501 11.0983L70.0916 12.727H71.382Z" fill="#262626"/>
<path d="M74.1319 13.5547H73.6157V9.68318H74.5591V11.9527L76.5436 9.68318H77.0064V13.5547H76.0631V11.3297L74.1319 13.5547Z" fill="#262626"/>
<path d="M78.9554 11.0716H80.406V9.67429H81.376V13.5458H80.406V11.9438H78.9554V13.5458H77.9853V9.67429H78.9554V11.0716Z" fill="#262626"/>
<path d="M82.3638 9.68318H84.6243V10.6088H83.3339V13.5547H82.3638V9.68318Z" fill="#262626"/>
<path d="M16.8554 0.996826H18.6976V1.69102H17.5585V4.71701H16.8554V0.996826Z" fill="#262626"/>
<path d="M19.2494 0.996826H19.9969C20.4063 0.996826 20.7 1.03243 20.878 1.11253C21.056 1.19263 21.1983 1.30832 21.3051 1.47742C21.4119 1.64652 21.4564 1.84232 21.4564 2.08262C21.4564 2.34072 21.3852 2.55432 21.2517 2.73232C21.1182 2.90142 20.9314 3.02602 20.7 3.08832C20.5665 3.12392 20.3173 3.15062 19.9524 3.15062V4.72591H19.2494V0.996826ZM19.9613 2.44752H20.1838C20.3618 2.44752 20.4864 2.43862 20.5576 2.41192C20.6288 2.38522 20.6822 2.34072 20.7178 2.28732C20.7534 2.22502 20.7801 2.15382 20.7801 2.07372C20.7801 1.93132 20.7267 1.82452 20.611 1.76222C20.5309 1.70882 20.3796 1.69102 20.1571 1.69102H19.9613V2.44752Z" fill="#262626"/>
<path d="M23.1918 3.86261L21.8747 0.996826H22.6756L23.5478 3.07052L24.2597 0.996826H24.9895L24.0016 3.65792C23.8326 4.11181 23.6457 4.41441 23.4499 4.57461C23.2541 4.72591 23.0405 4.80601 22.8091 4.80601C22.4443 4.80601 22.1061 4.62801 21.7946 4.26311L22.2574 3.80031C22.4443 4.01391 22.6222 4.12071 22.8091 4.12071C22.8892 4.12071 22.9604 4.10291 23.0049 4.05841C23.0583 4.01391 23.1206 3.95161 23.1918 3.86261Z" fill="#262626"/>
<path d="M25.4611 0.996826H28.131V4.70811H27.419V1.65542H26.182V4.70811H25.4611V0.996826Z" fill="#262626"/>
<path d="M28.9853 0.996826H31.6551V4.70811H30.9432V1.65542H29.7062V4.70811H28.9853V0.996826Z" fill="#262626"/>
<path d="M33.6308 0.996826H34.3516L35.7844 4.70811H35.0458L34.7521 3.94271H33.2392L32.9366 4.70811H32.198L33.6308 0.996826ZM33.9957 1.98472L33.4973 3.25742H34.494L33.9957 1.98472Z" fill="#262626"/>
<path d="M37.7779 0.996826H38.4898V2.27842L39.4955 0.996826H40.3409L39.0416 2.65222L40.4655 4.70811H39.629L38.481 3.06162V4.70811H37.769V0.996826H37.7779Z" fill="#262626"/>
<path d="M42.7349 0.907837C43.2599 0.907837 43.7138 1.09474 44.0876 1.47743C44.4613 1.86013 44.6571 2.32293 44.6571 2.86583C44.6571 3.40873 44.4702 3.87153 44.0965 4.24532C43.7227 4.61912 43.2688 4.80602 42.7349 4.80602C42.1742 4.80602 41.7114 4.61022 41.3466 4.22752C40.9728 3.84483 40.7948 3.38203 40.7948 2.85693C40.7948 2.50093 40.8838 2.17163 41.0529 1.87793C41.222 1.58423 41.4622 1.34394 41.7648 1.16594C42.0674 0.987937 42.3878 0.907837 42.7349 0.907837ZM42.726 1.59313C42.3789 1.59313 42.0941 1.70883 41.8627 1.94913C41.6313 2.18943 41.5067 2.49203 41.5067 2.85693C41.5067 3.26633 41.658 3.59563 41.9517 3.83593C42.1831 4.02282 42.4412 4.11182 42.7438 4.11182C43.0819 4.11182 43.3667 3.98723 43.5981 3.74693C43.8384 3.50663 43.9541 3.20403 43.9541 2.84803C43.9541 2.49203 43.8384 2.19833 43.5981 1.94913C43.3578 1.71773 43.0641 1.59313 42.726 1.59313Z" fill="#262626"/>
<path d="M45.6895 0.996826H46.3747L47.238 3.58672L48.1101 0.996826H48.7953L49.4183 4.70811H48.733L48.3326 2.35852L47.5405 4.70811H46.9176L46.1344 2.35852L45.7251 4.70811H45.0398L45.6895 0.996826Z" fill="#262626"/>
<path d="M49.979 0.996826H52.6488V4.70811H51.9368V1.65542H50.6998V4.70811H49.979V0.996826Z" fill="#262626"/>
<path d="M54.6333 0.996826H55.3542L56.787 4.70811H56.0484L55.7547 3.94271H54.2418L53.9303 4.70811H53.1917L54.6333 0.996826ZM54.9893 1.98472L54.491 3.25742H55.4877L54.9893 1.98472Z" fill="#262626"/>
<path d="M57.321 0.996826H58.0418V2.40302H59.2788V0.996826H59.9908V4.70811H59.2788V3.07942H58.0418V4.70811H57.321V0.996826Z" fill="#262626"/>
<path d="M63.5416 0.996826V4.70811H62.8386V2.38522L61.4503 4.70811H60.8362V0.996826H61.5393V3.39982L62.9454 0.996826H63.5416Z" fill="#262626"/>
<path d="M67.1014 0.996815V4.7081H66.3894V2.38521L65.0011 4.7081H64.3871V0.996815H65.0901V3.39981L66.4962 0.996815H67.1014ZM64.7341 1.93473e-05H65.2948C65.3393 0.071219 65.4016 0.124619 65.4817 0.151319C65.5618 0.178019 65.6597 0.204719 65.7665 0.204719C65.8822 0.204719 65.989 0.186919 66.078 0.142419C66.1403 0.115719 66.1937 0.0623191 66.2382 -0.00888062H66.7988C66.7632 0.204718 66.6653 0.373818 66.4962 0.507317C66.3271 0.640817 66.0869 0.703116 65.7754 0.703116C65.5707 0.703116 65.3927 0.676417 65.2503 0.614117C65.1079 0.560717 64.9922 0.471717 64.9121 0.364918C64.8142 0.267018 64.7608 0.142419 64.7341 1.93473e-05Z" fill="#262626"/>
</g>
<defs>
<clipPath id="clip0">
<rect width="84.6154" height="50" fill="white"/>
</clipPath>
</defs>
</svg>
