<svg width="41" height="28" viewBox="0 0 41 28" fill="none" xmlns="http://www.w3.org/2000/svg">
<path d="M0 1L0 28L41 28L30.0667 13.825L41 1L0 1Z" fill="#D20018"/>
<path d="M15.684 12.794C14.852 13.6087 13.812 14.016 12.564 14.016C11.316 14.016 10.2673 13.6 9.418 12.768C8.586 11.936 8.17 10.922 8.17 9.726C8.17 8.53 8.586 7.516 9.418 6.684C10.2673 5.852 11.316 5.436 12.564 5.436C13.812 5.436 14.852 5.852 15.684 6.684C16.516 7.49867 16.932 8.51267 16.932 9.726C16.932 10.9393 16.516 11.962 15.684 12.794ZM10.016 21.244L21.872 8.062L23.458 8.946L11.576 22.154L10.016 21.244ZM11.368 10.922C11.68 11.234 12.07 11.39 12.538 11.39C13.006 11.39 13.396 11.234 13.708 10.922C14.02 10.5927 14.176 10.194 14.176 9.726C14.176 9.258 14.02 8.868 13.708 8.556C13.396 8.244 13.006 8.088 12.538 8.088C12.07 8.088 11.68 8.244 11.368 8.556C11.0733 8.868 10.926 9.258 10.926 9.726C10.926 10.194 11.0733 10.5927 11.368 10.922ZM24.472 23.064C23.64 23.896 22.6 24.312 21.352 24.312C20.104 24.312 19.064 23.896 18.232 23.064C17.4 22.232 16.984 21.218 16.984 20.022C16.984 18.826 17.4 17.812 18.232 16.98C19.064 16.148 20.104 15.732 21.352 15.732C22.6 15.732 23.64 16.148 24.472 16.98C25.304 17.812 25.72 18.826 25.72 20.022C25.72 21.218 25.304 22.232 24.472 23.064ZM20.182 21.218C20.494 21.53 20.884 21.686 21.352 21.686C21.82 21.686 22.2013 21.5213 22.496 21.192C22.808 20.8627 22.964 20.4727 22.964 20.022C22.964 19.554 22.808 19.164 22.496 18.852C22.2013 18.5227 21.82 18.358 21.352 18.358C20.884 18.358 20.494 18.5227 20.182 18.852C19.8873 19.164 19.74 19.554 19.74 20.022C19.74 20.49 19.8873 20.8887 20.182 21.218Z" fill="white"/>
</svg>
