<svg width="52" height="60" viewBox="0 0 52 60" fill="none" xmlns="http://www.w3.org/2000/svg">
<path d="M52 1H0V60L27.3 44.2667L52 60V1Z" fill="#D20018"/>
<path d="M24.692 19.622C23.476 20.8127 21.956 21.408 20.132 21.408C18.308 21.408 16.7753 20.8 15.534 19.584C14.318 18.368 13.71 16.886 13.71 15.138C13.71 13.39 14.318 11.908 15.534 10.692C16.7753 9.476 18.308 8.868 20.132 8.868C21.956 8.868 23.476 9.476 24.692 10.692C25.908 11.8827 26.516 13.3647 26.516 15.138C26.516 16.9113 25.908 18.406 24.692 19.622ZM16.408 31.972L33.736 12.706L36.054 13.998L18.688 33.302L16.408 31.972ZM18.384 16.886C18.84 17.342 19.41 17.57 20.094 17.57C20.778 17.57 21.348 17.342 21.804 16.886C22.26 16.4047 22.488 15.822 22.488 15.138C22.488 14.454 22.26 13.884 21.804 13.428C21.348 12.972 20.778 12.744 20.094 12.744C19.41 12.744 18.84 12.972 18.384 13.428C17.9533 13.884 17.738 14.454 17.738 15.138C17.738 15.822 17.9533 16.4047 18.384 16.886ZM37.536 34.632C36.32 35.848 34.8 36.456 32.976 36.456C31.152 36.456 29.632 35.848 28.416 34.632C27.2 33.416 26.592 31.934 26.592 30.186C26.592 28.438 27.2 26.956 28.416 25.74C29.632 24.524 31.152 23.916 32.976 23.916C34.8 23.916 36.32 24.524 37.536 25.74C38.752 26.956 39.36 28.438 39.36 30.186C39.36 31.934 38.752 33.416 37.536 34.632ZM31.266 31.934C31.722 32.39 32.292 32.618 32.976 32.618C33.66 32.618 34.2173 32.3773 34.648 31.896C35.104 31.4147 35.332 30.8447 35.332 30.186C35.332 29.502 35.104 28.932 34.648 28.476C34.2173 27.9947 33.66 27.754 32.976 27.754C32.292 27.754 31.722 27.9947 31.266 28.476C30.8353 28.932 30.62 29.502 30.62 30.186C30.62 30.87 30.8353 31.4527 31.266 31.934Z" fill="white"/>
</svg>
