<svg width="31" height="29" viewBox="0 0 31 29" fill="none" xmlns="http://www.w3.org/2000/svg">
<path d="M18.7071 17.4286C19.6714 17.4286 20.52 16.9014 20.9571 16.1043L25.56 7.76001C26.0357 6.91144 25.4186 5.85715 24.4414 5.85715H5.41286L4.20429 3.28572H0V5.85715H2.57143L7.2 15.6157L5.46429 18.7529C4.52571 20.4757 5.76 22.5714 7.71429 22.5714H23.1429V20H7.71429L9.12857 17.4286H18.7071ZM6.63429 8.42858H22.2557L18.7071 14.8571H9.68143L6.63429 8.42858ZM7.71429 23.8571C6.3 23.8571 5.15571 25.0143 5.15571 26.4286C5.15571 27.8429 6.3 29 7.71429 29C9.12857 29 10.2857 27.8429 10.2857 26.4286C10.2857 25.0143 9.12857 23.8571 7.71429 23.8571ZM20.5714 23.8571C19.1571 23.8571 18.0129 25.0143 18.0129 26.4286C18.0129 27.8429 19.1571 29 20.5714 29C21.9857 29 23.1429 27.8429 23.1429 26.4286C23.1429 25.0143 21.9857 23.8571 20.5714 23.8571Z" fill="#262626"/>
<circle cx="25.0714" cy="5.21429" r="4.21429" fill="#D2001A" stroke="white" stroke-width="2"/>
</svg>
