<svg width="36" height="36" viewBox="0 0 36 36" fill="none" xmlns="http://www.w3.org/2000/svg">
<path d="M12.6804 16.5475C13.9908 19.4398 16.2037 21.8526 18.9651 23.4293L21.2625 21.3312C21.5445 21.0737 21.9482 21.0019 22.2924 21.1377C23.3944 21.558 24.5941 21.8127 25.8329 21.8688C26.3823 21.8938 26.8115 22.3637 26.7865 22.9131L26.6284 26.3995C26.6035 26.949 26.1336 27.3781 25.5841 27.3532C16.2038 26.9278 8.94637 18.9808 9.37179 9.60045C9.39671 9.05102 9.86663 8.62187 10.4161 8.64678L13.9125 8.80535C14.4619 8.83027 14.8911 9.3002 14.8661 9.84963C14.8095 11.0984 14.9549 12.3062 15.2738 13.4418C15.3678 13.7964 15.2703 14.1824 14.9779 14.4494L12.6804 16.5475Z" fill="#777777"/>
<circle cx="18" cy="18" r="17.5" stroke="#777777"/>
</svg>
