<svg width="40" height="40" viewBox="0 0 40 40" fill="none" xmlns="http://www.w3.org/2000/svg">
<path d="M1.96234 20.207L10.1535 23.2714L13.3246 33.4937C13.3718 33.6444 13.4553 33.7812 13.5677 33.8922C13.68 34.0032 13.8179 34.085 13.9692 34.1304C14.1205 34.1758 14.2806 34.1834 14.4355 34.1526C14.5905 34.1218 14.7355 34.0535 14.8579 33.9537L19.4246 30.2248C19.6569 30.034 19.9461 29.9259 20.2466 29.9175C20.5471 29.909 20.8419 30.0007 21.0846 30.1781L29.3223 36.1692C29.4525 36.2645 29.6046 36.3255 29.7646 36.3466C29.9245 36.3678 30.0872 36.3483 30.2377 36.2901C30.3882 36.2319 30.5216 36.1368 30.6257 36.0136C30.7298 35.8903 30.8012 35.7429 30.8335 35.5848L36.869 6.49588C36.903 6.32606 36.891 6.15024 36.8342 5.98662C36.7774 5.82301 36.6779 5.67756 36.546 5.56536C36.4141 5.45315 36.2545 5.37827 36.0839 5.34847C35.9133 5.31867 35.7378 5.33504 35.5757 5.39588L1.95123 18.3959C1.76806 18.4669 1.61078 18.5918 1.50026 18.7542C1.38975 18.9167 1.33121 19.1088 1.33242 19.3053C1.33362 19.5017 1.39451 19.6931 1.50701 19.8542C1.61951 20.0152 1.77831 20.1383 1.96234 20.207ZM12.8135 21.6425L28.8268 11.7559C29.1135 11.5803 29.409 11.9692 29.1601 12.2003L15.949 24.5114C15.4844 24.9431 15.1843 25.5228 15.1001 26.1514L14.649 29.4959C14.589 29.9403 13.9646 29.9848 13.8401 29.5559L12.1068 23.4581C12.0113 23.1198 12.0287 22.7596 12.1562 22.432C12.2837 22.1044 12.5144 21.8273 12.8135 21.6425Z" fill="white"/>
</svg>
