<svg width="40" height="40" viewBox="0 0 40 40" fill="none" xmlns="http://www.w3.org/2000/svg">
<path d="M32.8222 23.0176C34.0022 24.2909 35.2466 25.4864 36.3044 26.8864C36.7711 27.5087 37.2155 28.1509 37.5533 28.8731C38.0333 29.8998 37.5977 31.0287 36.7644 31.0909L31.5866 31.0864C30.2488 31.2109 29.1844 30.6153 28.2866 29.6064C27.5711 28.7998 26.9066 27.9398 26.2155 27.1087C25.945 26.7647 25.6313 26.457 25.2822 26.1931C24.5777 25.6864 23.9644 25.8398 23.56 26.6553C23.1466 27.4842 23.0533 28.402 23.0133 29.3242C22.9577 30.6709 22.5911 31.0264 21.3644 31.0864C18.7466 31.2242 16.2622 30.7864 13.9533 29.3264C11.9177 28.042 10.34 26.2264 8.9644 24.1709C6.29107 20.1687 4.2444 15.7709 2.40218 11.2487C1.98662 10.2309 2.28885 9.68423 3.30885 9.66645C4.99827 9.63052 6.68825 9.62904 8.37773 9.66201C9.0644 9.67312 9.51773 10.1064 9.7844 10.8242C10.6977 13.3064 11.8155 15.6687 13.22 17.8598C13.5955 18.442 13.9755 19.0242 14.52 19.4353C15.12 19.8887 15.5777 19.7376 15.86 18.9998C16.0377 18.5309 16.1177 18.0264 16.1577 17.5242C16.2911 15.7976 16.3088 14.0731 16.0755 12.3531C15.9311 11.2798 15.3822 10.5842 14.4133 10.382C13.9177 10.2776 13.9911 10.0731 14.2311 9.76201C14.6488 9.22423 15.04 8.88867 15.8222 8.88867H21.6755C22.5977 9.08867 22.8022 9.54645 22.9288 10.5709L22.9333 17.7531C22.9222 18.1487 23.1111 19.3264 23.76 19.5887C24.2755 19.7753 24.6177 19.3176 24.9288 18.9553C26.3288 17.3109 27.3288 15.3709 28.2244 13.3598C28.62 12.4753 28.9622 11.5598 29.2911 10.6398C29.5355 9.95978 29.92 9.62423 30.6155 9.63978L36.2488 9.64645C36.4155 9.64645 36.5844 9.64645 36.7466 9.67756C37.6977 9.85534 37.9577 10.3087 37.6644 11.3331C37.2022 12.9398 36.3022 14.2776 35.4244 15.622C34.4844 17.0576 33.48 18.4442 32.5466 19.8887C31.6911 21.2087 31.76 21.8731 32.8222 23.0176Z" fill="white"/>
</svg>
